<svg version="1.0" xmlns="http://www.w3.org/2000/svg" width="1706.667" height="1084" viewBox="0 0 1280 813"><path d="M553.5 1c-64.6 1.7-123.7 4.3-181.9 8l-31 2-5 4.2c-32.1 26.7-61.1 55.6-82 81.8-18.8 23.6-29.6 40.2-51.4 79.5-8 14.3-14.6 26.2-14.8 26.4-.2.2-1.5 0-2.9-.3-4.3-1.1-5.5-5.7-5.5-20.5 0-14.6-.8-17.6-5.4-19-12-3.9-38.5-4-52.7-.2-15.7 4.1-27.3 10.3-30.6 16.4-2.6 4.7-2.6 23.7 0 28.8 6.2 12.5 22.9 19.9 45 19.9 9 0 9.5-.1 10.1-2.3 1.7-6.7 11.9-14 21.1-15.1l5-.6-6.8 2.4c-3.8 1.4-7.8 3.3-8.9 4.3-2.6 2.3-4.8 6.6-4.8 9.3 0 1.8.6 2 7.5 2 7.2 0 17.3 1.5 18.7 2.9.4.3-2.5 4.2-6.3 8.6-12.4 14.1-23.6 27.9-28.8 35.5-5.5 7.9-6.8 7.1-2.7-1.5 2.4-5.1 12.7-19.5 16.5-22.9 1.2-1.1 2.1-2.3 2.1-2.7 0-1-4.5 1.6-18.8 10.8-32.1 20.7-60.1 45.9-101.7 91.2l-16.9 18.4-4.8 17.1c-9.1 32-14.4 63-15.5 91.2l-.6 16 5.9 6.1c5.5 5.6 11.7 9.5 20.4 12.9 3.5 1.4 3.5 1.4-2.3.9-7.3-.7-15-3.6-20-7.6l-3.9-3.2.6 8.4c.4 4.6 2.2 40.1 4.1 78.9 1.9 38.8 3.6 72.5 3.7 74.9l.3 4.5 7 2.1c3.9 1.2 9.4 3.4 12.3 4.9 5.4 2.8 13.7 9.5 12.7 10.4-.3.3-5.6-2.1-11.7-5.2-6.2-3.2-13.2-6-15.5-6.3l-4.1-.5-.8 7.8c-1.1 10.8-.9 36.8.5 48.9 2.4 21.5 5.4 40.2 7.2 45.4 4.7 13.5 17.4 28.2 29.2 34.1l6.8 3.3 33.7-.6c18.5-.4 56.7-1 84.7-1.3 37.2-.5 51.8-1 54.1-1.9 3.7-1.5 6.4-6.7 6.4-12.2v-4l-12.7-.1c-12.5 0-22.6-1.5-32.3-4.7l-4.5-1.4 8 .4c18.2 1.1 162.1 1.6 188 .7 23.2-.8 30.2-1.4 41-3.5 14.2-2.8 31.1-5.1 50.5-6.8 17.6-1.6 324.5-1.6 342 0 19.4 1.7 36.3 4 50.5 6.8 10.8 2.1 17.8 2.7 41 3.5 25.9.9 169.8.4 188-.7l8-.4-4.5 1.4c-9.6 3.2-19.8 4.7-32.2 4.8l-12.8.1v3.9c0 5.5 2.7 10.7 6.4 12.2 2.3.9 16.9 1.4 54.1 1.9 28.1.3 66.2.9 84.7 1.3l33.7.6 6.8-3.3c11.8-5.9 24.5-20.6 29.2-34.1 1.8-5.2 4.8-23.9 7.2-45.4 1.4-12.1 1.6-38.1.5-48.9l-.8-7.8-4.1.5c-2.3.3-9.3 3.1-15.5 6.3-6.1 3.1-11.4 5.5-11.7 5.2-1-.9 7.3-7.6 12.7-10.4 2.9-1.5 8.5-3.7 12.3-4.9l7-2.1.3-4.5c.1-2.4 1.8-36.1 3.7-74.9 1.9-38.8 3.7-74.3 4.1-78.9l.6-8.4-3.9 3.2c-5 4-12.7 6.9-20 7.6-5.8.5-5.8.5-2.3-.9 8.7-3.4 14.9-7.3 20.4-12.9l5.9-6.1-.6-16c-1.1-28.2-6.4-59.1-15.5-91.4l-4.8-16.9-23.7-25.6c-33.5-36.1-54.7-55.7-80.8-74.4-19.4-13.9-39.2-25.3-30.8-17.7 3.8 3.4 14.1 17.8 16.5 22.9 4.1 8.6 2.8 9.4-2.6 1.6-5.6-8.1-12.2-16.3-26.3-32.6-5.3-6.1-9.3-11.3-8.9-11.6 1.4-1.4 11.5-2.9 18.7-2.9 6.9 0 7.5-.2 7.5-2 0-2.7-2.2-7-4.7-9.3-1.1-.9-5.1-2.8-8.9-4.2l-6.9-2.5 5 .6c9.2 1.1 19.4 8.4 21.1 15.1.6 2.2 1.1 2.3 10.3 2.3 11.6 0 21.3-2 29.5-5.9 7.6-3.6 12.2-8 15.4-14.9 2.2-4.8 2.4-6.4 2-15-.5-11.5-1.9-14.8-8.4-19.3-11-7.5-26.6-11.8-46-12.6-19.9-.8-33.1 1.6-35.3 6.3-.6 1.5-1.1 7.9-1.1 15.5 0 14.6-1.3 19.4-5.7 20.5-1.3.4-2.6.5-2.7.3-.2-.2-5-8.7-10.6-18.9-27.2-49.3-39.3-67.8-62.9-96-16.3-19.6-49.3-51.7-74.7-72.8l-5-4.2-20-1.5C880.4 6.6 829 3.9 776 1.9 739.1.6 593.5 0 553.5 1zM351 14.8c-7.3 5-10.7 8.1-12.5 11.4-1.1 2-1.7 3.9-1.5 4.1.3.3 9.2-.3 19.8-1.3C496.4 15.6 659.4 11.4 790 18c46.1 2.3 97.4 6.4 136.5 10.9 8.8 1 16.2 1.6 16.5 1.4.2-.2-.4-2.1-1.5-4.1-1.8-3.2-4.5-5.8-12.5-11.5-1.4-1-.3-.7 2.6.7 22.5 10.9 61 58.3 106.4 131.1 11.1 17.8 32.3 54.6 31.7 55.1-.2.2-10.7-.3-23.3-1.1-196.3-12.4-447.3-15.3-659.9-7.5-54.7 2-125.3 5.5-161.4 8-7.9.6-14.6.9-14.8.7-1-1 27.1-48.4 45.1-76.2 39.6-61 70.4-97.7 91.8-109.5 5.9-3.3 7.6-3.8 3.8-1.2zm-90 316.7c8.4 19.2 15.4 35.2 15.6 35.4.3.3 8.1.8 17.5 1.2 17 .8 52.4 3.5 56.7 4.5 2.3.5 2.8 2 1.3 4.3-.8 1.2-5.1 1-28.2-1.3-15.1-1.4-32.3-3-38.4-3.4l-10.9-.7-14.8-37c-13.2-33-15.8-39.9-14.4-38.4.2.2 7.2 16.1 15.6 35.4zm759.5 2.2c-8 20.2-15 37.1-15.3 37.4-.4.4-8.6 1.2-18.2 1.8-9.6.7-25.7 2.1-35.8 3.1-23 2.5-22.9 2.5-23.7-.1-.4-1.3-.2-2.4.4-2.9 1.6-.9 38.6-4 58.8-4.9 9-.4 16.4-.9 16.7-1.2.2-.2 7.3-16.2 15.7-35.6 8.4-19.4 15.5-35 15.7-34.8.2.2-6.2 16.9-14.3 37.2zM153 352.8c33.9 11 55.3 15.1 92 17.4l19.6 1.2 32.1 63.5c34.8 68.9 38.3 76.5 52.7 115.6 5.3 14.3 12.2 32.5 15.3 40.5 19.5 50.3 39.1 82.2 68.4 111.1l11.7 11.6 10.3 2.2c32.6 6.8 63 9.4 127.4 10.8l35 .8-20 .8c-11 .4-38 .6-60 .3-42.4-.5-57.5-1.6-84.3-6.1-16.9-2.9-15.4-1.9-31.7-20.8-34.2-39.6-51-70.9-77-143.7-10.6-29.5-17.3-46.4-25-62.7l-5.7-12.1-9.2-.6c-5-.3-19.9-1-33.1-1.6-103.5-4.6-180.3-14-211.6-26.1-9.8-3.8-15-7.6-19.4-14.1-6.4-9.8-6.7-22.8-1.4-62l2.2-15.8 16.6-5.4c34.8-11.4 41.2-12.7 60.1-12.2l13.5.3 21.5 7.1zm1029.6-6.3c10.2 1.8 16.4 3.5 39.5 11.1l16.6 5.4 2.2 15.8c5.3 39 5 52.3-1.4 62-4.4 6.5-9.6 10.3-19.4 14.1-31.2 12-108.3 21.5-211.6 26.1-13.2.6-28.1 1.3-33.1 1.6l-9.2.6-5.7 12.1c-8.2 17.4-12.9 29.2-25 62.6-14.9 41.2-18.5 50.1-28.5 70.6-13.6 27.8-28.3 50-49.1 74-15.7 18.1-14.2 17.1-31.4 20-26.1 4.4-42.5 5.6-84.5 6.1-21.7.3-48.5.1-59.5-.3l-20-.8 35-.8c64.1-1.4 95-4 127.4-10.8l10.3-2.2 11.7-11.6c29.2-28.8 49.1-61.2 68.4-111.1 3.1-8 10.2-26.9 15.8-42 14.2-38.3 17-44.5 52.7-115.1l31.6-62.5 19.6-1.2c36.1-2.3 58.2-6.4 90.3-16.9 10.9-3.5 21.7-6.8 24-7.2 7-1.4 23.9-1.2 33.3.4zM514 351c27.8 1.7 82.9 6.7 93.7 8.5 2.6.5 4.1 1.8 7.3 6.4 2.5 3.8 5 6.3 6.9 6.9 3.7 1.3 3.7 1.1 5.5 24.7 4.1 52 2.5 80.1-5.5 97.5-4.2 9.1-7.1 12.5-13.4 15.5l-5.4 2.7-57.3.5c-71.7.7-95.6-.5-116.3-5.9-36-9.4-59.6-33.4-68.5-69.7-5.3-21.3-4.7-52 1.3-66.3 4.7-11.3 31.2-19.4 71.1-21.8 16-1 56.1-.4 80.6 1zm349.7.5c23 2.7 36.7 6.4 46.2 12.5 6.6 4.3 8.6 7.6 10.6 18.3 7.8 41.8-5.4 85.3-32.5 107-6.9 5.5-14.3 10-21.7 13.1-24.5 10.2-46.6 12.1-132.1 11.3l-57.3-.5-5.7-2.8c-9.7-4.9-15.1-15.1-18.9-35.7-2.3-12.5-2.2-50.1.1-77.2.9-11 1.9-20.8 2.2-21.8.3-.9 2-2.4 3.9-3.1 2.1-.9 4.3-3.1 5.9-5.9 1.5-2.5 3.3-5.1 4.1-5.7 3.2-2.7 72.9-9 125.5-11.4 14.9-.7 57.1.5 69.7 1.9zm-623.2 281c33.8 1.9 96.7 6.4 97.1 6.8.2.2-.2 1.1-.9 2.1-1.3 1.7-2.8 1.7-34.3-.8-52-4.1-57.3-4.5-91.4-5.7-34.6-1.2-66.3-.3-89.7 2.6-6.5.8-12 1.5-12.2 1.5-.2 0 1.4 1.3 3.5 2.9 8.2 6 12 12.6 13 22.8 2.1 19.9-14.6 35.6-37.5 35.2l-7.6-.2 6.9-.8c8.9-1.2 14.4-3.7 20.5-9.4 12.7-11.9 12.7-31.1 0-43.4-2.4-2.3-5.4-4.4-6.7-4.8-4.4-1.1-26.9 6-36 11.4-2.6 1.4-6.9 4.7-9.6 7.2l-4.9 4.6 2.4-4.3c5.5-10 17.5-18.6 31.9-23 7.9-2.4 22.7-4.9 36.5-6.2 14.3-1.3 87.2-.4 119 1.5zm916.2-1.5c15.7 1.3 29.7 3.6 38.3 6.2 14.6 4.5 26.6 13.1 31.9 22.9l2.4 4.4-4.4-4.2c-2.4-2.3-7.1-5.8-10.4-7.8-6.3-3.7-24.6-10.1-32-11.2-4.2-.5-4.6-.4-9.8 4.6-13.4 12.7-13.7 31.4-.6 43.6 6.1 5.7 11.6 8.2 20.5 9.4l6.9.8-7.7.2c-27.5.4-45-22.6-34.7-45.8 2.3-5.2 4.8-8.2 10.3-12.2 2.1-1.6 3.7-2.9 3.5-2.9-.2 0-5.7-.7-12.2-1.5-23.4-2.9-55.1-3.8-89.7-2.6-34.1 1.2-39.4 1.6-91.3 5.7-31.8 2.5-32.9 2.5-34.2.7-.7-1-1.2-1.9-1.1-2.1.8-.8 98.9-7 135.1-8.5 18.7-.8 67.8-.6 79.2.3zM450 649c84.4 5.9 131 7.4 216.2 6.7 38.1-.3 77.6-1 87.8-1.6 33.7-1.9 66.8-4.3 85.3-6 10-1 18.3-1.7 18.5-1.5.6.4-10.1 18.9-15.1 26.2-10.2 14.8-20.5 23.9-30.1 26.7-13.3 3.9-45.6 7.4-89.1 9.7-31 1.6-142.3 1.6-173 0-54.7-2.9-83.1-6.5-94.2-11.8-10.9-5.3-22.7-18.7-34.1-39.1-3.4-6-6.2-11.3-6.2-11.6 0-.4 1.2-.4 2.8-.2 1.5.3 15.5 1.4 31.2 2.5zm-239.7 18.7c-2.4.2-6.2.2-8.5 0-2.4-.2-.5-.4 4.2-.4s6.6.2 4.3.4zm868 0c-2.4.2-6.2.2-8.5 0-2.4-.2-.5-.4 4.2-.4s6.6.2 4.3.4zm-776.8 3.4 55 2.2 2.7 3.1c1.5 1.7 2.7 3.3 2.8 3.7 0 .3-6.5-.3-14.5-1.3-19.3-2.3-53.7-5.4-82.5-7.3-12.9-.9-29.6-2-37-2.5l-13.5-.9 16 .4c8.8.2 40.8 1.3 71 2.6zm750.5-2c-53.4 3.3-92.9 6.5-119.5 9.7-8 1-14.5 1.6-14.5 1.3.1-.4 1.3-2 2.8-3.7l2.7-3.1 57.5-2.2c31.6-1.2 58.2-2.4 59-2.5.8-.2 6.9-.4 13.5-.3h12l-13.5.8zm-650 68.3c78.6 4.7 116 5.6 238 5.6 131.2 0 181.6-1.5 274.3-7.8 10.5-.7 10.7-.7 10.7 1.4 0 2-.6 2.1-12.7 2.7-7.1.4-25.4 1.4-40.8 2.2-82.2 4.3-110.1 4.9-232 4.9-122.1 0-145.6-.5-232.5-5-51.9-2.6-51.5-2.6-51.8-4.9-.3-2 0-2 10.5-1.3 5.9.4 22.3 1.4 36.3 2.2zM80.7 754.6c-.3.3-1.2.4-1.9.1-.8-.3-.5-.6.6-.6 1.1-.1 1.7.2 1.3.5zm1121 0c-.3.3-1.2.4-1.9.1-.8-.3-.5-.6.6-.6 1.1-.1 1.7.2 1.3.5zM135.2 759c100.9 9 126.2 10.5 163.8 9.7 29.5-.6 45.6-2.6 59.5-7.2 4.5-1.5-3.1 3.5-8.5 5.6-29.5 11.3-111.9 8-255.5-10.4-20.1-2.6-5.1-1.7 40.7 2.3zm1050.3-2.3c-72.3 9.2-125.9 14.4-172.1 16.4-47.4 2.1-81.1-1.6-91.4-10.2-2.1-1.7-2.1-2-.5-1.4 14 4.7 30 6.6 60 7.2 37.7.8 66.6-1 162-9.7 43.4-3.9 62.7-5 42-2.3z"/><path d="M74.6 376.5c-9.5 16.1-10 36.5-1.4 52.8 14 26.2 46.9 34.9 71.4 18.8 3.2-2.1 7.3-5.4 9.1-7.2 3.2-3.5 10.3-14.5 10.3-16.2 0-.5-2.3 1.2-5.2 3.8-32 28.8-82.9 4.5-82.8-39.5 0-4.1.5-9.5 1.1-11.9.5-2.4.8-4.5.6-4.8-.3-.2-1.7 1.7-3.1 4.2zM217.3 430.6c-4.8 10.6-1.9 25.2 6.6 32.6 13.7 12.1 34.5 8.5 42.7-7.3l1.5-2.9-4.6 3.4c-13.8 10.6-32.8 6-40.5-9.7-2.9-6-3.2-7.3-2.8-14.1.2-4.2.2-7.6 0-7.6s-1.5 2.5-2.9 5.6zM1202.5 374c1.7 6.3 1.7 21.5 0 28-5.9 22.8-26.3 39-49 39-11.9 0-25.1-5.2-33.3-13.1-2.3-2.3-4.2-3.8-4.2-3.5 0 1.9 5.4 10.7 9.1 15 16.3 18.4 44.4 22.1 64.8 8.5 7.8-5.2 13.3-11.6 17.6-20.4 6.4-13.2 7.2-28.5 2.2-41.7-2.7-7.1-8.6-16.6-7.2-11.8zM1059.8 432.6c.4 6.8.1 8.1-2.8 14.1-4.8 9.7-13.1 15.1-23.5 15.2-7 .1-11.7-1.4-17-5.5l-4.6-3.4 1.5 2.9c4.6 8.9 13.9 14.5 24 14.5 11-.1 19.5-5.4 24.5-15.6 4.1-8.1 4.3-16.7.6-24.6-1.3-2.8-2.5-5.2-2.7-5.2-.2 0-.2 3.4 0 7.6zM370.4 381.7c-.9 4.8.2 21.6 2.2 32.8 2.1 12 6.6 25.8 10.6 32.4 4.3 7.2 6.1 7.8 5.4 2-.3-2.4-1.3-17.5-2.1-33.4-.9-16-1.8-30.9-2.1-33.3l-.5-4.2h-12.8l-.7 3.7zM389 381.7c0 4.9 4.1 73.8 4.5 75 .5 1.4 13.4 8.7 14.2 8 .7-.8-4.2-83.1-5.1-84.6-.4-.6-3.4-1.1-7.2-1.1-6.3 0-6.4 0-6.4 2.7zM408 384.7c.1 11.7 4.9 82.6 5.7 83.3 1.3 1.2 12.5 5.1 13.1 4.5.9-.8-4.1-89.9-5.1-91.3-.6-.7-3.4-1.2-7.3-1.2H408v4.7zM427 383.7c0 4.1 3.9 75.6 4.6 84l.6 7.3 3.6 1c2 .6 5.3 1.3 7.2 1.6l3.5.6-2.3-47.4c-1.3-26-2.5-47.9-2.7-48.6-.3-.8-2.7-1.2-7.5-1.2-7 0-7 0-7 2.7zM446 382.7c0 .5 1.1 22.2 2.5 48.3 1.4 26.1 2.5 47.8 2.5 48.1 0 .7 14.1 3.2 14.6 2.6.5-.4-4.5-96.9-5.1-98.5-.5-1.3-14.5-1.8-14.5-.5zM606.6 382.7l-3.9.4.6 13.2c1 25.6 4 84.2 4.3 84.6.2.2 1-.2 1.8-.8 2.6-2.1 5.5-9.7 7.6-19.8 3.9-18.5 3.8-59.2-.3-73.4-1.4-4.8-2.1-5.1-10.1-4.2zM465.5 386.7c.2 2.1 1.4 24.3 2.6 49.3 1.2 25 2.5 45.9 2.9 46.3.4.4 3.8 1.1 7.6 1.4l7 .6-.4-7.9c-.2-4.4-1.4-27-2.6-50.4l-2.1-42.5-7.8-.3-7.7-.3.5 3.8zM485.4 392.7c.3 5.4 1.6 28.2 2.7 50.8 1.1 22.5 2.2 41.1 2.2 41.2.1.1 3.5.5 7.5.8l7.2.8v-3.9c0-6-4.9-97.6-5.2-97.9-.2-.1-3.6-.5-7.7-.9l-7.4-.6.7 9.7zM588.3 383.7c-3.3.3-5.3.9-5.3 1.6 0 .7 1.1 22.6 2.5 48.7s2.5 48.2 2.5 49c0 1.3 1.2 1.5 6.8 1.2 3.7-.2 7.1-.7 7.5-1.2.4-.4-.3-22.8-1.7-49.7-1.4-26.9-2.6-49.3-2.6-49.6 0-.4-1-.6-2.2-.5-1.3.1-4.7.3-7.5.5zM505 389.2c.1 7.9 4.8 95.9 5.2 96.2.9.8 13.8 1.4 14.2.7.5-.8-4.3-98.8-4.9-100.9-.3-.8-2.7-1.2-7.5-1.2h-7v5.2zM524.7 384.7c-.4.6 1.9 48.3 4.5 96.3l.3 5.5h15l-.3-4c-.1-2.2-1.1-22.9-2.2-46s-2.3-44.4-2.6-47.3l-.5-5.2H532c-3.8 0-7.1.3-7.3.7zM544 386.7c0 1.6 1.1 24.2 2.5 50.3 1.4 26.1 2.5 47.8 2.5 48.2 0 .5 3.4.8 7.5.8 5.1 0 7.5-.4 7.5-1.2 0-5.4-5.1-98.6-5.5-99.6-.3-.8-2.8-1.2-7.5-1.2-7 0-7 0-7 2.7zM563.8 384.7c-.6 1.2 4.6 100 5.3 100.7.3.4 3.7.4 7.5 0l6.9-.6-.3-7.7c-.2-4.2-1.4-26.7-2.6-50.1l-2.1-42.5-7.2-.3c-3.9-.2-7.3.1-7.5.5zM895.6 381.2c-.3 1.8-1.2 16.8-2.1 33.3-.8 16.5-1.8 32-2.1 34.4-.7 5.8 1.1 5.2 5.4-2 4-6.6 8.5-20.4 10.6-32.4 2-11.2 3.1-28 2.2-32.8l-.7-3.7h-12.8l-.5 3.2zM877.4 380.1c-.9 1.5-5.8 83.8-5.1 84.6.8.7 13.7-6.6 14.2-8 .3-1.1 4.6-72.1 4.5-76 0-1.4-1-1.7-6.4-1.7-3.8 0-6.8.5-7.2 1.1zM858.3 380.7c-.8.3-1.3 2.2-1.3 4.6 0 2.3-.9 22.7-2.2 45.4-1.2 22.7-1.9 41.5-1.6 41.8.6.6 11.7-3.2 13.1-4.5.8-.7 5.6-72.3 5.7-83.8V380l-6.2.1c-3.5 0-6.9.3-7.5.6zM838.5 382.2c-.5 1.6-5.2 95.2-4.8 95.7.3.5 11.7-1.9 13.2-2.8.8-.5 1.9-15 3.6-44.7 1.4-24.1 2.5-45.1 2.5-46.7 0-2.7 0-2.7-7-2.7-4.8 0-7.2.4-7.5 1.2zM664.2 383.7c-3.7 7.2-5.3 52.9-2.4 71.2 2.2 13.7 7.1 26.1 10.4 26.1.4 0 .8-3.5.8-7.8 0-4.2.4-14.2.9-22.2 1.7-26.3 3.5-67 3-67.4-.2-.2-3-.7-6.1-1-4.9-.6-5.8-.5-6.6 1.1zM819.5 383.2c-.6 1.7-5.6 98-5.1 98.5.2.2 3.5-.2 7.5-.8 5.3-.9 7.1-1.6 7.1-2.8 0-.9 1.1-22.3 2.5-47.6s2.5-46.6 2.5-47.3c0-.8-2.1-1.2-7-1.2-4.7 0-7.2.4-7.5 1.2zM681.6 391.8c-1.2 16.6-4.8 91.3-4.5 91.7.2.1 3.6.5 7.5.7l7.2.4.6-11.6c2.4-43.9 4.6-88.3 4.4-88.5-.2-.1-3.5-.5-7.4-.9l-7.2-.6-.6 8.8zM785.3 383.7l-5.1.4-.6 7.2c-.8 9.1-4.6 85.8-4.6 91.1v3.9l7.3-.8c3.9-.3 7.3-.7 7.3-.8.1-.1 1.2-19.1 2.3-42.2 1.2-23.1 2.4-45.9 2.8-50.8l.6-8.7-2.4.2c-1.3.1-4.7.3-7.6.5zM799.6 384.2c-.2.7-1.4 21.8-2.5 46.8-1.2 25-2.4 47.3-2.7 49.4l-.5 3.9 7.2-.6c4-.3 7.5-1 7.9-1.4.4-.4 1.7-21.7 2.9-47.3 1.2-25.6 2.4-47.7 2.7-49.3l.6-2.7h-7.7c-5.2 0-7.7.4-7.9 1.2zM701.6 385.2c-.2.7-1.4 21.8-2.5 46.8-1.2 25-2.4 47.1-2.6 49.1l-.5 3.6 7.2.6c4 .3 7.4.4 7.7.1.4-.4 2.2-31.5 4.8-84.2.4-9 .6-16.6.4-16.8-.2-.2-3.5-.4-7.3-.4-4.6 0-7 .4-7.2 1.2zM721.6 384.9c-.4.6-5.6 92.7-5.6 99.4 0 1.4 1.1 1.7 7.5 1.7 5.6 0 7.5-.3 7.5-1.3 0-1.2 2.5-48.9 4.6-88.5l.6-12.2h-7c-3.9 0-7.3.4-7.6.9zM740.6 388.2c-.3 2.4-1.5 23.6-2.6 47.3-1.1 23.6-2.1 44.8-2.2 47l-.3 4h15l1.2-24c.7-13.2 1.9-35.9 2.7-50.5.8-14.6 1.2-26.8.9-27.3-.2-.4-3.5-.7-7.3-.7h-6.9l-.5 4.2zM760 387.2c0 1.8-1.1 24.7-2.5 50.8-1.4 26.1-2.1 47.7-1.7 48.1.4.4 3.7.5 7.4.2l6.7-.6.5-7.1c.8-9.5 4.6-85 4.6-90.4V384h-15v3.2z" fill="#3470FF"/></svg>